<mxfile host="app.diagrams.net" agent="Mozilla/5.0 (Windows NT 10.0; Win64; x64) AppleWebKit/537.36 (KHTML, like Gecko) Chrome/137.0.0.0 Safari/537.36" version="27.1.5">
  <diagram name="Page-1" id="jHqCYxFGCe3tI_gSr4o8">
    <mxGraphModel dx="1042" dy="561" grid="0" gridSize="10" guides="1" tooltips="1" connect="1" arrows="1" fold="1" page="0" pageScale="1" pageWidth="850" pageHeight="1100" background="#ffffff" math="0" shadow="0">
      <root>
        <mxCell id="0" />
        <mxCell id="1" parent="0" />
        <mxCell id="WWTZZWRBZjoq4rbTMtrc-1" value="Market&lt;span style=&quot;white-space: pre;&quot;&gt;&#x9;&lt;/span&gt;" style="swimlane;fontStyle=1;align=center;verticalAlign=top;childLayout=stackLayout;horizontal=1;startSize=26;horizontalStack=0;resizeParent=1;resizeParentMax=0;resizeLast=0;collapsible=1;marginBottom=0;whiteSpace=wrap;html=1;" vertex="1" parent="1">
          <mxGeometry x="330" y="391" width="161" height="254" as="geometry">
            <mxRectangle x="270" y="100" width="90" height="30" as="alternateBounds" />
          </mxGeometry>
        </mxCell>
        <mxCell id="WWTZZWRBZjoq4rbTMtrc-2" value="ime: String" style="text;strokeColor=none;fillColor=none;align=left;verticalAlign=top;spacingLeft=4;spacingRight=4;overflow=hidden;rotatable=0;points=[[0,0.5],[1,0.5]];portConstraint=eastwest;whiteSpace=wrap;html=1;" vertex="1" parent="WWTZZWRBZjoq4rbTMtrc-1">
          <mxGeometry y="26" width="161" height="26" as="geometry" />
        </mxCell>
        <mxCell id="WWTZZWRBZjoq4rbTMtrc-3" value="adresa: String" style="text;strokeColor=none;fillColor=none;align=left;verticalAlign=top;spacingLeft=4;spacingRight=4;overflow=hidden;rotatable=0;points=[[0,0.5],[1,0.5]];portConstraint=eastwest;whiteSpace=wrap;html=1;" vertex="1" parent="WWTZZWRBZjoq4rbTMtrc-1">
          <mxGeometry y="52" width="161" height="26" as="geometry" />
        </mxCell>
        <mxCell id="WWTZZWRBZjoq4rbTMtrc-4" value="kontakt tel.: String" style="text;strokeColor=none;fillColor=none;align=left;verticalAlign=top;spacingLeft=4;spacingRight=4;overflow=hidden;rotatable=0;points=[[0,0.5],[1,0.5]];portConstraint=eastwest;whiteSpace=wrap;html=1;" vertex="1" parent="WWTZZWRBZjoq4rbTMtrc-1">
          <mxGeometry y="78" width="161" height="26" as="geometry" />
        </mxCell>
        <mxCell id="WWTZZWRBZjoq4rbTMtrc-5" value="lanec: Boolean" style="text;strokeColor=none;fillColor=none;align=left;verticalAlign=top;spacingLeft=4;spacingRight=4;overflow=hidden;rotatable=0;points=[[0,0.5],[1,0.5]];portConstraint=eastwest;whiteSpace=wrap;html=1;" vertex="1" parent="WWTZZWRBZjoq4rbTMtrc-1">
          <mxGeometry y="104" width="161" height="26" as="geometry" />
        </mxCell>
        <mxCell id="WWTZZWRBZjoq4rbTMtrc-6" value="brProdavnici: Integer" style="text;strokeColor=none;fillColor=none;align=left;verticalAlign=top;spacingLeft=4;spacingRight=4;overflow=hidden;rotatable=0;points=[[0,0.5],[1,0.5]];portConstraint=eastwest;whiteSpace=wrap;html=1;" vertex="1" parent="WWTZZWRBZjoq4rbTMtrc-1">
          <mxGeometry y="130" width="161" height="26" as="geometry" />
        </mxCell>
        <mxCell id="WWTZZWRBZjoq4rbTMtrc-7" value="brVraboteni: Integer" style="text;strokeColor=none;fillColor=none;align=left;verticalAlign=top;spacingLeft=4;spacingRight=4;overflow=hidden;rotatable=0;points=[[0,0.5],[1,0.5]];portConstraint=eastwest;whiteSpace=wrap;html=1;" vertex="1" parent="WWTZZWRBZjoq4rbTMtrc-1">
          <mxGeometry y="156" width="161" height="26" as="geometry" />
        </mxCell>
        <mxCell id="WWTZZWRBZjoq4rbTMtrc-8" value="" style="line;strokeWidth=1;fillColor=none;align=left;verticalAlign=middle;spacingTop=-1;spacingLeft=3;spacingRight=3;rotatable=0;labelPosition=right;points=[];portConstraint=eastwest;strokeColor=inherit;" vertex="1" parent="WWTZZWRBZjoq4rbTMtrc-1">
          <mxGeometry y="182" width="161" height="8" as="geometry" />
        </mxCell>
        <mxCell id="WWTZZWRBZjoq4rbTMtrc-9" value="&lt;font&gt;+ addProduct(p: Proizvod)&lt;/font&gt;" style="text;strokeColor=none;fillColor=none;align=left;verticalAlign=top;spacingLeft=4;spacingRight=4;overflow=hidden;rotatable=0;points=[[0,0.5],[1,0.5]];portConstraint=eastwest;whiteSpace=wrap;html=1;" vertex="1" parent="WWTZZWRBZjoq4rbTMtrc-1">
          <mxGeometry y="190" width="161" height="26" as="geometry" />
        </mxCell>
        <mxCell id="WWTZZWRBZjoq4rbTMtrc-10" value="&lt;font&gt;+ deleteProduct(p: Proizvod)&lt;/font&gt;" style="text;strokeColor=none;fillColor=none;align=left;verticalAlign=top;spacingLeft=4;spacingRight=4;overflow=hidden;rotatable=0;points=[[0,0.5],[1,0.5]];portConstraint=eastwest;whiteSpace=wrap;html=1;" vertex="1" parent="WWTZZWRBZjoq4rbTMtrc-1">
          <mxGeometry y="216" width="161" height="38" as="geometry" />
        </mxCell>
        <mxCell id="WWTZZWRBZjoq4rbTMtrc-11" value="Proizvod" style="swimlane;fontStyle=1;align=center;verticalAlign=top;childLayout=stackLayout;horizontal=1;startSize=26;horizontalStack=0;resizeParent=1;resizeParentMax=0;resizeLast=0;collapsible=1;marginBottom=0;whiteSpace=wrap;html=1;" vertex="1" parent="1">
          <mxGeometry x="947" y="309" width="160" height="216" as="geometry" />
        </mxCell>
        <mxCell id="WWTZZWRBZjoq4rbTMtrc-12" value="ime: String" style="text;strokeColor=none;fillColor=none;align=left;verticalAlign=top;spacingLeft=4;spacingRight=4;overflow=hidden;rotatable=0;points=[[0,0.5],[1,0.5]];portConstraint=eastwest;whiteSpace=wrap;html=1;" vertex="1" parent="WWTZZWRBZjoq4rbTMtrc-11">
          <mxGeometry y="26" width="160" height="26" as="geometry" />
        </mxCell>
        <mxCell id="WWTZZWRBZjoq4rbTMtrc-13" value="datumP : Date" style="text;strokeColor=none;fillColor=none;align=left;verticalAlign=top;spacingLeft=4;spacingRight=4;overflow=hidden;rotatable=0;points=[[0,0.5],[1,0.5]];portConstraint=eastwest;whiteSpace=wrap;html=1;" vertex="1" parent="WWTZZWRBZjoq4rbTMtrc-11">
          <mxGeometry y="52" width="160" height="26" as="geometry" />
        </mxCell>
        <mxCell id="WWTZZWRBZjoq4rbTMtrc-14" value="&lt;div&gt;datumI : Date&lt;/div&gt;" style="text;strokeColor=none;fillColor=none;align=left;verticalAlign=top;spacingLeft=4;spacingRight=4;overflow=hidden;rotatable=0;points=[[0,0.5],[1,0.5]];portConstraint=eastwest;whiteSpace=wrap;html=1;" vertex="1" parent="WWTZZWRBZjoq4rbTMtrc-11">
          <mxGeometry y="78" width="160" height="26" as="geometry" />
        </mxCell>
        <mxCell id="WWTZZWRBZjoq4rbTMtrc-15" value="status: String" style="text;strokeColor=none;fillColor=none;align=left;verticalAlign=top;spacingLeft=4;spacingRight=4;overflow=hidden;rotatable=0;points=[[0,0.5],[1,0.5]];portConstraint=eastwest;whiteSpace=wrap;html=1;" vertex="1" parent="WWTZZWRBZjoq4rbTMtrc-11">
          <mxGeometry y="104" width="160" height="26" as="geometry" />
        </mxCell>
        <mxCell id="WWTZZWRBZjoq4rbTMtrc-16" value="opis: String" style="text;strokeColor=none;fillColor=none;align=left;verticalAlign=top;spacingLeft=4;spacingRight=4;overflow=hidden;rotatable=0;points=[[0,0.5],[1,0.5]];portConstraint=eastwest;whiteSpace=wrap;html=1;" vertex="1" parent="WWTZZWRBZjoq4rbTMtrc-11">
          <mxGeometry y="130" width="160" height="26" as="geometry" />
        </mxCell>
        <mxCell id="WWTZZWRBZjoq4rbTMtrc-17" value="" style="line;strokeWidth=1;fillColor=none;align=left;verticalAlign=middle;spacingTop=-1;spacingLeft=3;spacingRight=3;rotatable=0;labelPosition=right;points=[];portConstraint=eastwest;strokeColor=inherit;" vertex="1" parent="WWTZZWRBZjoq4rbTMtrc-11">
          <mxGeometry y="156" width="160" height="8" as="geometry" />
        </mxCell>
        <mxCell id="WWTZZWRBZjoq4rbTMtrc-18" value="+ proveriStatus(): String" style="text;strokeColor=none;fillColor=none;align=left;verticalAlign=top;spacingLeft=4;spacingRight=4;overflow=hidden;rotatable=0;points=[[0,0.5],[1,0.5]];portConstraint=eastwest;whiteSpace=wrap;html=1;" vertex="1" parent="WWTZZWRBZjoq4rbTMtrc-11">
          <mxGeometry y="164" width="160" height="26" as="geometry" />
        </mxCell>
        <mxCell id="WWTZZWRBZjoq4rbTMtrc-19" value="&lt;div&gt;+ daliEVoRok(): boolean&lt;/div&gt;&lt;div&gt;&lt;br&gt;&lt;/div&gt;" style="text;strokeColor=none;fillColor=none;align=left;verticalAlign=top;spacingLeft=4;spacingRight=4;overflow=hidden;rotatable=0;points=[[0,0.5],[1,0.5]];portConstraint=eastwest;whiteSpace=wrap;html=1;" vertex="1" parent="WWTZZWRBZjoq4rbTMtrc-11">
          <mxGeometry y="190" width="160" height="26" as="geometry" />
        </mxCell>
        <mxCell id="WWTZZWRBZjoq4rbTMtrc-20" value="" style="endArrow=none;html=1;rounded=0;exitX=1;exitY=0.5;exitDx=0;exitDy=0;entryX=0;entryY=0.5;entryDx=0;entryDy=0;" edge="1" parent="1" source="WWTZZWRBZjoq4rbTMtrc-5" target="WWTZZWRBZjoq4rbTMtrc-15">
          <mxGeometry width="50" height="50" relative="1" as="geometry">
            <mxPoint x="892" y="548" as="sourcePoint" />
            <mxPoint x="942" y="498" as="targetPoint" />
          </mxGeometry>
        </mxCell>
        <mxCell id="WWTZZWRBZjoq4rbTMtrc-21" value="" style="endArrow=none;dashed=1;html=1;rounded=0;exitX=0.469;exitY=1.108;exitDx=0;exitDy=0;exitPerimeter=0;" edge="1" parent="1" source="WWTZZWRBZjoq4rbTMtrc-29">
          <mxGeometry width="50" height="50" relative="1" as="geometry">
            <mxPoint x="852" y="528" as="sourcePoint" />
            <mxPoint x="800" y="451" as="targetPoint" />
          </mxGeometry>
        </mxCell>
        <mxCell id="WWTZZWRBZjoq4rbTMtrc-22" value="MarketProizvodi" style="swimlane;fontStyle=1;align=center;verticalAlign=top;childLayout=stackLayout;horizontal=1;startSize=26;horizontalStack=0;resizeParent=1;resizeParentMax=0;resizeLast=0;collapsible=1;marginBottom=0;whiteSpace=wrap;html=1;" vertex="1" parent="1">
          <mxGeometry x="621" y="210" width="196" height="190" as="geometry" />
        </mxCell>
        <mxCell id="WWTZZWRBZjoq4rbTMtrc-23" value="kolichina: Integer" style="text;strokeColor=none;fillColor=none;align=left;verticalAlign=top;spacingLeft=4;spacingRight=4;overflow=hidden;rotatable=0;points=[[0,0.5],[1,0.5]];portConstraint=eastwest;whiteSpace=wrap;html=1;" vertex="1" parent="WWTZZWRBZjoq4rbTMtrc-22">
          <mxGeometry y="26" width="196" height="26" as="geometry" />
        </mxCell>
        <mxCell id="WWTZZWRBZjoq4rbTMtrc-24" value="zaliha: Boolean" style="text;strokeColor=none;fillColor=none;align=left;verticalAlign=top;spacingLeft=4;spacingRight=4;overflow=hidden;rotatable=0;points=[[0,0.5],[1,0.5]];portConstraint=eastwest;whiteSpace=wrap;html=1;" vertex="1" parent="WWTZZWRBZjoq4rbTMtrc-22">
          <mxGeometry y="52" width="196" height="26" as="geometry" />
        </mxCell>
        <mxCell id="WWTZZWRBZjoq4rbTMtrc-25" value="&lt;div&gt;cena: Float&lt;/div&gt;" style="text;strokeColor=none;fillColor=none;align=left;verticalAlign=top;spacingLeft=4;spacingRight=4;overflow=hidden;rotatable=0;points=[[0,0.5],[1,0.5]];portConstraint=eastwest;whiteSpace=wrap;html=1;" vertex="1" parent="WWTZZWRBZjoq4rbTMtrc-22">
          <mxGeometry y="78" width="196" height="26" as="geometry" />
        </mxCell>
        <mxCell id="WWTZZWRBZjoq4rbTMtrc-26" value="proizvod: Proizvod" style="text;strokeColor=none;fillColor=none;align=left;verticalAlign=top;spacingLeft=4;spacingRight=4;overflow=hidden;rotatable=0;points=[[0,0.5],[1,0.5]];portConstraint=eastwest;whiteSpace=wrap;html=1;" vertex="1" parent="WWTZZWRBZjoq4rbTMtrc-22">
          <mxGeometry y="104" width="196" height="26" as="geometry" />
        </mxCell>
        <mxCell id="WWTZZWRBZjoq4rbTMtrc-27" value="&lt;div&gt;market: Market&lt;/div&gt;" style="text;strokeColor=none;fillColor=none;align=left;verticalAlign=top;spacingLeft=4;spacingRight=4;overflow=hidden;rotatable=0;points=[[0,0.5],[1,0.5]];portConstraint=eastwest;whiteSpace=wrap;html=1;" vertex="1" parent="WWTZZWRBZjoq4rbTMtrc-22">
          <mxGeometry y="130" width="196" height="26" as="geometry" />
        </mxCell>
        <mxCell id="WWTZZWRBZjoq4rbTMtrc-28" value="" style="line;strokeWidth=1;fillColor=none;align=left;verticalAlign=middle;spacingTop=-1;spacingLeft=3;spacingRight=3;rotatable=0;labelPosition=right;points=[];portConstraint=eastwest;strokeColor=inherit;" vertex="1" parent="WWTZZWRBZjoq4rbTMtrc-22">
          <mxGeometry y="156" width="196" height="8" as="geometry" />
        </mxCell>
        <mxCell id="WWTZZWRBZjoq4rbTMtrc-29" value="&lt;font&gt;+ proveriZaliha(): boolean&lt;/font&gt;" style="text;strokeColor=none;fillColor=none;align=left;verticalAlign=top;spacingLeft=4;spacingRight=4;overflow=hidden;rotatable=0;points=[[0,0.5],[1,0.5]];portConstraint=eastwest;whiteSpace=wrap;html=1;" vertex="1" parent="WWTZZWRBZjoq4rbTMtrc-22">
          <mxGeometry y="164" width="196" height="26" as="geometry" />
        </mxCell>
        <mxCell id="WWTZZWRBZjoq4rbTMtrc-30" value="0..*" style="text;html=1;align=center;verticalAlign=middle;resizable=0;points=[];autosize=1;strokeColor=none;fillColor=none;" vertex="1" parent="1">
          <mxGeometry x="902" y="436" width="40" height="30" as="geometry" />
        </mxCell>
        <mxCell id="WWTZZWRBZjoq4rbTMtrc-31" value="1..*" style="text;html=1;align=center;verticalAlign=middle;resizable=0;points=[];autosize=1;strokeColor=none;fillColor=none;" vertex="1" parent="1">
          <mxGeometry x="494" y="506" width="40" height="30" as="geometry" />
        </mxCell>
        <mxCell id="WWTZZWRBZjoq4rbTMtrc-32" value="Korisnik" style="swimlane;fontStyle=1;align=center;verticalAlign=top;childLayout=stackLayout;horizontal=1;startSize=26;horizontalStack=0;resizeParent=1;resizeParentMax=0;resizeLast=0;collapsible=1;marginBottom=0;whiteSpace=wrap;html=1;" vertex="1" parent="1">
          <mxGeometry x="1532" y="380" width="160" height="242" as="geometry">
            <mxRectangle x="270" y="100" width="90" height="30" as="alternateBounds" />
          </mxGeometry>
        </mxCell>
        <mxCell id="WWTZZWRBZjoq4rbTMtrc-33" value="ime: String" style="text;strokeColor=none;fillColor=none;align=left;verticalAlign=top;spacingLeft=4;spacingRight=4;overflow=hidden;rotatable=0;points=[[0,0.5],[1,0.5]];portConstraint=eastwest;whiteSpace=wrap;html=1;" vertex="1" parent="WWTZZWRBZjoq4rbTMtrc-32">
          <mxGeometry y="26" width="160" height="26" as="geometry" />
        </mxCell>
        <mxCell id="WWTZZWRBZjoq4rbTMtrc-34" value="prezime: String" style="text;strokeColor=none;fillColor=none;align=left;verticalAlign=top;spacingLeft=4;spacingRight=4;overflow=hidden;rotatable=0;points=[[0,0.5],[1,0.5]];portConstraint=eastwest;whiteSpace=wrap;html=1;" vertex="1" parent="WWTZZWRBZjoq4rbTMtrc-32">
          <mxGeometry y="52" width="160" height="26" as="geometry" />
        </mxCell>
        <mxCell id="WWTZZWRBZjoq4rbTMtrc-35" value="tel.broj: String&lt;span style=&quot;white-space: pre;&quot;&gt;&#x9;&lt;/span&gt;&lt;div&gt;&lt;br&gt;&lt;/div&gt;" style="text;strokeColor=none;fillColor=none;align=left;verticalAlign=top;spacingLeft=4;spacingRight=4;overflow=hidden;rotatable=0;points=[[0,0.5],[1,0.5]];portConstraint=eastwest;whiteSpace=wrap;html=1;" vertex="1" parent="WWTZZWRBZjoq4rbTMtrc-32">
          <mxGeometry y="78" width="160" height="26" as="geometry" />
        </mxCell>
        <mxCell id="WWTZZWRBZjoq4rbTMtrc-36" value="kime: String" style="text;strokeColor=none;fillColor=none;align=left;verticalAlign=top;spacingLeft=4;spacingRight=4;overflow=hidden;rotatable=0;points=[[0,0.5],[1,0.5]];portConstraint=eastwest;whiteSpace=wrap;html=1;" vertex="1" parent="WWTZZWRBZjoq4rbTMtrc-32">
          <mxGeometry y="104" width="160" height="26" as="geometry" />
        </mxCell>
        <mxCell id="WWTZZWRBZjoq4rbTMtrc-37" value="lozinka: String" style="text;strokeColor=none;fillColor=none;align=left;verticalAlign=top;spacingLeft=4;spacingRight=4;overflow=hidden;rotatable=0;points=[[0,0.5],[1,0.5]];portConstraint=eastwest;whiteSpace=wrap;html=1;" vertex="1" parent="WWTZZWRBZjoq4rbTMtrc-32">
          <mxGeometry y="130" width="160" height="26" as="geometry" />
        </mxCell>
        <mxCell id="WWTZZWRBZjoq4rbTMtrc-38" value="email: String" style="text;strokeColor=none;fillColor=none;align=left;verticalAlign=top;spacingLeft=4;spacingRight=4;overflow=hidden;rotatable=0;points=[[0,0.5],[1,0.5]];portConstraint=eastwest;whiteSpace=wrap;html=1;" vertex="1" parent="WWTZZWRBZjoq4rbTMtrc-32">
          <mxGeometry y="156" width="160" height="26" as="geometry" />
        </mxCell>
        <mxCell id="WWTZZWRBZjoq4rbTMtrc-39" value="kartichka: String" style="text;strokeColor=none;fillColor=none;align=left;verticalAlign=top;spacingLeft=4;spacingRight=4;overflow=hidden;rotatable=0;points=[[0,0.5],[1,0.5]];portConstraint=eastwest;whiteSpace=wrap;html=1;" vertex="1" parent="WWTZZWRBZjoq4rbTMtrc-32">
          <mxGeometry y="182" width="160" height="26" as="geometry" />
        </mxCell>
        <mxCell id="WWTZZWRBZjoq4rbTMtrc-40" value="" style="line;strokeWidth=1;fillColor=none;align=left;verticalAlign=middle;spacingTop=-1;spacingLeft=3;spacingRight=3;rotatable=0;labelPosition=right;points=[];portConstraint=eastwest;strokeColor=inherit;" vertex="1" parent="WWTZZWRBZjoq4rbTMtrc-32">
          <mxGeometry y="208" width="160" height="8" as="geometry" />
        </mxCell>
        <mxCell id="WWTZZWRBZjoq4rbTMtrc-41" value="+ login(u:string, p:string)" style="text;strokeColor=none;fillColor=none;align=left;verticalAlign=top;spacingLeft=4;spacingRight=4;overflow=hidden;rotatable=0;points=[[0,0.5],[1,0.5]];portConstraint=eastwest;whiteSpace=wrap;html=1;" vertex="1" parent="WWTZZWRBZjoq4rbTMtrc-32">
          <mxGeometry y="216" width="160" height="26" as="geometry" />
        </mxCell>
        <mxCell id="WWTZZWRBZjoq4rbTMtrc-42" value="" style="triangle;whiteSpace=wrap;html=1;direction=north;fillColor=none;" vertex="1" parent="1">
          <mxGeometry x="1622" y="623" width="40" height="30" as="geometry" />
        </mxCell>
        <mxCell id="WWTZZWRBZjoq4rbTMtrc-43" value="" style="endArrow=none;html=1;rounded=0;exitX=0.544;exitY=0;exitDx=0;exitDy=0;entryX=0;entryY=0.25;entryDx=0;entryDy=0;exitPerimeter=0;" edge="1" parent="1" source="WWTZZWRBZjoq4rbTMtrc-112" target="WWTZZWRBZjoq4rbTMtrc-42">
          <mxGeometry width="50" height="50" relative="1" as="geometry">
            <mxPoint x="1482" y="770" as="sourcePoint" />
            <mxPoint x="1652" y="666" as="targetPoint" />
          </mxGeometry>
        </mxCell>
        <mxCell id="WWTZZWRBZjoq4rbTMtrc-44" value="" style="endArrow=none;html=1;rounded=0;entryX=0;entryY=0.75;entryDx=0;entryDy=0;exitX=0.301;exitY=0.03;exitDx=0;exitDy=0;exitPerimeter=0;" edge="1" parent="1" source="WWTZZWRBZjoq4rbTMtrc-123" target="WWTZZWRBZjoq4rbTMtrc-42">
          <mxGeometry width="50" height="50" relative="1" as="geometry">
            <mxPoint x="1902" y="898" as="sourcePoint" />
            <mxPoint x="1652" y="726" as="targetPoint" />
          </mxGeometry>
        </mxCell>
        <mxCell id="WWTZZWRBZjoq4rbTMtrc-45" value="" style="endArrow=none;html=1;rounded=0;exitX=0;exitY=0.5;exitDx=0;exitDy=0;entryX=0.173;entryY=0.016;entryDx=0;entryDy=0;entryPerimeter=0;" edge="1" parent="1" source="WWTZZWRBZjoq4rbTMtrc-42" target="WWTZZWRBZjoq4rbTMtrc-118">
          <mxGeometry width="50" height="50" relative="1" as="geometry">
            <mxPoint x="1712" y="716" as="sourcePoint" />
            <mxPoint x="1593.6799999999998" y="878.53" as="targetPoint" />
          </mxGeometry>
        </mxCell>
        <mxCell id="WWTZZWRBZjoq4rbTMtrc-46" value="" style="triangle;whiteSpace=wrap;html=1;direction=north;fillColor=none;" vertex="1" parent="1">
          <mxGeometry x="1552" y="623" width="30" height="20" as="geometry" />
        </mxCell>
        <mxCell id="WWTZZWRBZjoq4rbTMtrc-47" value="Kupuvac" style="swimlane;fontStyle=1;align=center;verticalAlign=top;childLayout=stackLayout;horizontal=1;startSize=26;horizontalStack=0;resizeParent=1;resizeParentMax=0;resizeLast=0;collapsible=1;marginBottom=0;whiteSpace=wrap;html=1;" vertex="1" parent="1">
          <mxGeometry x="1213" y="719" width="177" height="227" as="geometry" />
        </mxCell>
        <mxCell id="WWTZZWRBZjoq4rbTMtrc-48" value="grad: String" style="text;strokeColor=none;fillColor=none;align=left;verticalAlign=top;spacingLeft=4;spacingRight=4;overflow=hidden;rotatable=0;points=[[0,0.5],[1,0.5]];portConstraint=eastwest;whiteSpace=wrap;html=1;" vertex="1" parent="WWTZZWRBZjoq4rbTMtrc-47">
          <mxGeometry y="26" width="177" height="26" as="geometry" />
        </mxCell>
        <mxCell id="WWTZZWRBZjoq4rbTMtrc-49" value="adresa: String" style="text;strokeColor=none;fillColor=none;align=left;verticalAlign=top;spacingLeft=4;spacingRight=4;overflow=hidden;rotatable=0;points=[[0,0.5],[1,0.5]];portConstraint=eastwest;whiteSpace=wrap;html=1;" vertex="1" parent="WWTZZWRBZjoq4rbTMtrc-47">
          <mxGeometry y="52" width="177" height="26" as="geometry" />
        </mxCell>
        <mxCell id="WWTZZWRBZjoq4rbTMtrc-50" value="" style="line;strokeWidth=1;fillColor=none;align=left;verticalAlign=middle;spacingTop=-1;spacingLeft=3;spacingRight=3;rotatable=0;labelPosition=right;points=[];portConstraint=eastwest;strokeColor=inherit;" vertex="1" parent="WWTZZWRBZjoq4rbTMtrc-47">
          <mxGeometry y="78" width="177" height="8" as="geometry" />
        </mxCell>
        <mxCell id="WWTZZWRBZjoq4rbTMtrc-51" value="+ dodadiVoMyFavourite(p: Proizvod, market: Market)" style="text;strokeColor=none;fillColor=none;align=left;verticalAlign=top;spacingLeft=4;spacingRight=4;overflow=hidden;rotatable=0;points=[[0,0.5],[1,0.5]];portConstraint=eastwest;whiteSpace=wrap;html=1;" vertex="1" parent="WWTZZWRBZjoq4rbTMtrc-47">
          <mxGeometry y="86" width="177" height="37" as="geometry" />
        </mxCell>
        <mxCell id="WWTZZWRBZjoq4rbTMtrc-52" value="+ napraviNarachka(p: Proizvod, market: Market): Narachka" style="text;strokeColor=none;fillColor=none;align=left;verticalAlign=top;spacingLeft=4;spacingRight=4;overflow=hidden;rotatable=0;points=[[0,0.5],[1,0.5]];portConstraint=eastwest;whiteSpace=wrap;html=1;" vertex="1" parent="WWTZZWRBZjoq4rbTMtrc-47">
          <mxGeometry y="123" width="177" height="54" as="geometry" />
        </mxCell>
        <mxCell id="WWTZZWRBZjoq4rbTMtrc-53" value="+ listajProizvodi(): Proizvod [*]" style="text;strokeColor=none;fillColor=none;align=left;verticalAlign=top;spacingLeft=4;spacingRight=4;overflow=hidden;rotatable=0;points=[[0,0.5],[1,0.5]];portConstraint=eastwest;whiteSpace=wrap;html=1;" vertex="1" parent="WWTZZWRBZjoq4rbTMtrc-47">
          <mxGeometry y="177" width="177" height="25" as="geometry" />
        </mxCell>
        <mxCell id="WWTZZWRBZjoq4rbTMtrc-54" value="+ primiNotifikacija()" style="text;strokeColor=none;fillColor=none;align=left;verticalAlign=top;spacingLeft=4;spacingRight=4;overflow=hidden;rotatable=0;points=[[0,0.5],[1,0.5]];portConstraint=eastwest;whiteSpace=wrap;html=1;" vertex="1" parent="WWTZZWRBZjoq4rbTMtrc-47">
          <mxGeometry y="202" width="177" height="25" as="geometry" />
        </mxCell>
        <mxCell id="WWTZZWRBZjoq4rbTMtrc-55" value="" style="endArrow=none;html=1;rounded=0;entryX=0;entryY=0.5;entryDx=0;entryDy=0;exitX=0.643;exitY=-0.02;exitDx=0;exitDy=0;exitPerimeter=0;" edge="1" parent="1" source="WWTZZWRBZjoq4rbTMtrc-47" target="WWTZZWRBZjoq4rbTMtrc-46">
          <mxGeometry width="50" height="50" relative="1" as="geometry">
            <mxPoint x="1252" y="736" as="sourcePoint" />
            <mxPoint x="1302" y="686" as="targetPoint" />
          </mxGeometry>
        </mxCell>
        <mxCell id="WWTZZWRBZjoq4rbTMtrc-56" value="" style="endArrow=none;html=1;rounded=0;exitX=0.988;exitY=0.94;exitDx=0;exitDy=0;exitPerimeter=0;entryX=0.385;entryY=0.032;entryDx=0;entryDy=0;entryPerimeter=0;" edge="1" parent="1" source="WWTZZWRBZjoq4rbTMtrc-16" target="WWTZZWRBZjoq4rbTMtrc-112">
          <mxGeometry width="50" height="50" relative="1" as="geometry">
            <mxPoint x="1372" y="678" as="sourcePoint" />
            <mxPoint x="1442" y="770" as="targetPoint" />
          </mxGeometry>
        </mxCell>
        <mxCell id="WWTZZWRBZjoq4rbTMtrc-57" value="1..*" style="text;html=1;align=center;verticalAlign=middle;resizable=0;points=[];autosize=1;strokeColor=none;fillColor=none;" vertex="1" parent="1">
          <mxGeometry x="1112" y="486" width="40" height="30" as="geometry" />
        </mxCell>
        <mxCell id="WWTZZWRBZjoq4rbTMtrc-58" value="1..*" style="text;html=1;align=center;verticalAlign=middle;resizable=0;points=[];autosize=1;strokeColor=none;fillColor=none;" vertex="1" parent="1">
          <mxGeometry x="1437" y="740" width="40" height="30" as="geometry" />
        </mxCell>
        <mxCell id="WWTZZWRBZjoq4rbTMtrc-59" value="" style="endArrow=none;dashed=1;html=1;rounded=0;entryX=0.386;entryY=1.154;entryDx=0;entryDy=0;entryPerimeter=0;" edge="1" parent="1" target="WWTZZWRBZjoq4rbTMtrc-68">
          <mxGeometry width="50" height="50" relative="1" as="geometry">
            <mxPoint x="1292" y="605" as="sourcePoint" />
            <mxPoint x="1322" y="548" as="targetPoint" />
          </mxGeometry>
        </mxCell>
        <mxCell id="WWTZZWRBZjoq4rbTMtrc-60" value="Azhuriranje" style="swimlane;fontStyle=1;align=center;verticalAlign=top;childLayout=stackLayout;horizontal=1;startSize=26;horizontalStack=0;resizeParent=1;resizeParentMax=0;resizeLast=0;collapsible=1;marginBottom=0;whiteSpace=wrap;html=1;" vertex="1" parent="1">
          <mxGeometry x="1280" y="341" width="160" height="216" as="geometry" />
        </mxCell>
        <mxCell id="WWTZZWRBZjoq4rbTMtrc-61" value="datumP : Date" style="text;strokeColor=none;fillColor=none;align=left;verticalAlign=top;spacingLeft=4;spacingRight=4;overflow=hidden;rotatable=0;points=[[0,0.5],[1,0.5]];portConstraint=eastwest;whiteSpace=wrap;html=1;" vertex="1" parent="WWTZZWRBZjoq4rbTMtrc-60">
          <mxGeometry y="26" width="160" height="26" as="geometry" />
        </mxCell>
        <mxCell id="WWTZZWRBZjoq4rbTMtrc-62" value="&lt;div&gt;datumK: Date&lt;/div&gt;" style="text;strokeColor=none;fillColor=none;align=left;verticalAlign=top;spacingLeft=4;spacingRight=4;overflow=hidden;rotatable=0;points=[[0,0.5],[1,0.5]];portConstraint=eastwest;whiteSpace=wrap;html=1;" vertex="1" parent="WWTZZWRBZjoq4rbTMtrc-60">
          <mxGeometry y="52" width="160" height="26" as="geometry" />
        </mxCell>
        <mxCell id="WWTZZWRBZjoq4rbTMtrc-63" value="staraCena: Float" style="text;strokeColor=none;fillColor=none;align=left;verticalAlign=top;spacingLeft=4;spacingRight=4;overflow=hidden;rotatable=0;points=[[0,0.5],[1,0.5]];portConstraint=eastwest;whiteSpace=wrap;html=1;" vertex="1" parent="WWTZZWRBZjoq4rbTMtrc-60">
          <mxGeometry y="78" width="160" height="26" as="geometry" />
        </mxCell>
        <mxCell id="WWTZZWRBZjoq4rbTMtrc-64" value="novaCena: Float" style="text;strokeColor=none;fillColor=none;align=left;verticalAlign=top;spacingLeft=4;spacingRight=4;overflow=hidden;rotatable=0;points=[[0,0.5],[1,0.5]];portConstraint=eastwest;whiteSpace=wrap;html=1;" vertex="1" parent="WWTZZWRBZjoq4rbTMtrc-60">
          <mxGeometry y="104" width="160" height="26" as="geometry" />
        </mxCell>
        <mxCell id="WWTZZWRBZjoq4rbTMtrc-65" value="proizvod: Proizvod" style="text;strokeColor=none;fillColor=none;align=left;verticalAlign=top;spacingLeft=4;spacingRight=4;overflow=hidden;rotatable=0;points=[[0,0.5],[1,0.5]];portConstraint=eastwest;whiteSpace=wrap;html=1;" vertex="1" parent="WWTZZWRBZjoq4rbTMtrc-60">
          <mxGeometry y="130" width="160" height="26" as="geometry" />
        </mxCell>
        <mxCell id="WWTZZWRBZjoq4rbTMtrc-66" value="admin: Admin" style="text;strokeColor=none;fillColor=none;align=left;verticalAlign=top;spacingLeft=4;spacingRight=4;overflow=hidden;rotatable=0;points=[[0,0.5],[1,0.5]];portConstraint=eastwest;whiteSpace=wrap;html=1;" vertex="1" parent="WWTZZWRBZjoq4rbTMtrc-60">
          <mxGeometry y="156" width="160" height="26" as="geometry" />
        </mxCell>
        <mxCell id="WWTZZWRBZjoq4rbTMtrc-67" value="" style="line;strokeWidth=1;fillColor=none;align=left;verticalAlign=middle;spacingTop=-1;spacingLeft=3;spacingRight=3;rotatable=0;labelPosition=right;points=[];portConstraint=eastwest;strokeColor=inherit;" vertex="1" parent="WWTZZWRBZjoq4rbTMtrc-60">
          <mxGeometry y="182" width="160" height="8" as="geometry" />
        </mxCell>
        <mxCell id="WWTZZWRBZjoq4rbTMtrc-68" value="+ vratiPeriodPopust()" style="text;strokeColor=none;fillColor=none;align=left;verticalAlign=top;spacingLeft=4;spacingRight=4;overflow=hidden;rotatable=0;points=[[0,0.5],[1,0.5]];portConstraint=eastwest;whiteSpace=wrap;html=1;" vertex="1" parent="WWTZZWRBZjoq4rbTMtrc-60">
          <mxGeometry y="190" width="160" height="26" as="geometry" />
        </mxCell>
        <mxCell id="WWTZZWRBZjoq4rbTMtrc-69" value="" style="endArrow=none;html=1;rounded=0;exitX=0.735;exitY=1.109;exitDx=0;exitDy=0;exitPerimeter=0;entryX=0;entryY=0.5;entryDx=0;entryDy=0;" edge="1" parent="1" source="WWTZZWRBZjoq4rbTMtrc-10" target="WWTZZWRBZjoq4rbTMtrc-119">
          <mxGeometry width="50" height="50" relative="1" as="geometry">
            <mxPoint x="1472" y="888" as="sourcePoint" />
            <mxPoint x="1582" y="895" as="targetPoint" />
            <Array as="points">
              <mxPoint x="849" y="957" />
            </Array>
          </mxGeometry>
        </mxCell>
        <mxCell id="WWTZZWRBZjoq4rbTMtrc-70" value="1..*" style="text;html=1;align=center;verticalAlign=middle;resizable=0;points=[];autosize=1;strokeColor=none;fillColor=none;" vertex="1" parent="1">
          <mxGeometry x="1643" y="977" width="40" height="30" as="geometry" />
        </mxCell>
        <mxCell id="WWTZZWRBZjoq4rbTMtrc-71" value="1..*" style="text;html=1;align=center;verticalAlign=middle;resizable=0;points=[];autosize=1;strokeColor=none;fillColor=none;" vertex="1" parent="1">
          <mxGeometry x="408" y="645" width="40" height="30" as="geometry" />
        </mxCell>
        <mxCell id="WWTZZWRBZjoq4rbTMtrc-72" value="Kazna" style="swimlane;fontStyle=1;align=center;verticalAlign=top;childLayout=stackLayout;horizontal=1;startSize=26;horizontalStack=0;resizeParent=1;resizeParentMax=0;resizeLast=0;collapsible=1;marginBottom=0;whiteSpace=wrap;html=1;" vertex="1" parent="1">
          <mxGeometry x="755" y="996" width="160" height="190" as="geometry" />
        </mxCell>
        <mxCell id="WWTZZWRBZjoq4rbTMtrc-73" value="datum: Date" style="text;strokeColor=none;fillColor=none;align=left;verticalAlign=top;spacingLeft=4;spacingRight=4;overflow=hidden;rotatable=0;points=[[0,0.5],[1,0.5]];portConstraint=eastwest;whiteSpace=wrap;html=1;" vertex="1" parent="WWTZZWRBZjoq4rbTMtrc-72">
          <mxGeometry y="26" width="160" height="26" as="geometry" />
        </mxCell>
        <mxCell id="WWTZZWRBZjoq4rbTMtrc-74" value="visina: Float" style="text;strokeColor=none;fillColor=none;align=left;verticalAlign=top;spacingLeft=4;spacingRight=4;overflow=hidden;rotatable=0;points=[[0,0.5],[1,0.5]];portConstraint=eastwest;whiteSpace=wrap;html=1;" vertex="1" parent="WWTZZWRBZjoq4rbTMtrc-72">
          <mxGeometry y="52" width="160" height="26" as="geometry" />
        </mxCell>
        <mxCell id="WWTZZWRBZjoq4rbTMtrc-75" value="&lt;div&gt;ser. br: String&lt;/div&gt;" style="text;strokeColor=none;fillColor=none;align=left;verticalAlign=top;spacingLeft=4;spacingRight=4;overflow=hidden;rotatable=0;points=[[0,0.5],[1,0.5]];portConstraint=eastwest;whiteSpace=wrap;html=1;" vertex="1" parent="WWTZZWRBZjoq4rbTMtrc-72">
          <mxGeometry y="78" width="160" height="26" as="geometry" />
        </mxCell>
        <mxCell id="WWTZZWRBZjoq4rbTMtrc-76" value="market: Market" style="text;strokeColor=none;fillColor=none;align=left;verticalAlign=top;spacingLeft=4;spacingRight=4;overflow=hidden;rotatable=0;points=[[0,0.5],[1,0.5]];portConstraint=eastwest;whiteSpace=wrap;html=1;" vertex="1" parent="WWTZZWRBZjoq4rbTMtrc-72">
          <mxGeometry y="104" width="160" height="26" as="geometry" />
        </mxCell>
        <mxCell id="WWTZZWRBZjoq4rbTMtrc-77" value="inspektor: Inspektor" style="text;strokeColor=none;fillColor=none;align=left;verticalAlign=top;spacingLeft=4;spacingRight=4;overflow=hidden;rotatable=0;points=[[0,0.5],[1,0.5]];portConstraint=eastwest;whiteSpace=wrap;html=1;" vertex="1" parent="WWTZZWRBZjoq4rbTMtrc-72">
          <mxGeometry y="130" width="160" height="26" as="geometry" />
        </mxCell>
        <mxCell id="WWTZZWRBZjoq4rbTMtrc-78" value="" style="line;strokeWidth=1;fillColor=none;align=left;verticalAlign=middle;spacingTop=-1;spacingLeft=3;spacingRight=3;rotatable=0;labelPosition=right;points=[];portConstraint=eastwest;strokeColor=inherit;" vertex="1" parent="WWTZZWRBZjoq4rbTMtrc-72">
          <mxGeometry y="156" width="160" height="8" as="geometry" />
        </mxCell>
        <mxCell id="WWTZZWRBZjoq4rbTMtrc-79" value="+ generirajKazna()" style="text;strokeColor=none;fillColor=none;align=left;verticalAlign=top;spacingLeft=4;spacingRight=4;overflow=hidden;rotatable=0;points=[[0,0.5],[1,0.5]];portConstraint=eastwest;whiteSpace=wrap;html=1;" vertex="1" parent="WWTZZWRBZjoq4rbTMtrc-72">
          <mxGeometry y="164" width="160" height="26" as="geometry" />
        </mxCell>
        <mxCell id="WWTZZWRBZjoq4rbTMtrc-80" value="" style="endArrow=none;dashed=1;html=1;rounded=0;exitX=0.5;exitY=0;exitDx=0;exitDy=0;" edge="1" parent="1" source="WWTZZWRBZjoq4rbTMtrc-72">
          <mxGeometry width="50" height="50" relative="1" as="geometry">
            <mxPoint x="852" y="948" as="sourcePoint" />
            <mxPoint x="854" y="957" as="targetPoint" />
          </mxGeometry>
        </mxCell>
        <mxCell id="WWTZZWRBZjoq4rbTMtrc-81" value="" style="endArrow=none;html=1;rounded=0;exitX=1;exitY=0.5;exitDx=0;exitDy=0;" edge="1" parent="1" source="WWTZZWRBZjoq4rbTMtrc-7">
          <mxGeometry width="50" height="50" relative="1" as="geometry">
            <mxPoint x="1402" y="668" as="sourcePoint" />
            <mxPoint x="992" y="668" as="targetPoint" />
          </mxGeometry>
        </mxCell>
        <mxCell id="WWTZZWRBZjoq4rbTMtrc-82" value="" style="endArrow=none;html=1;rounded=0;entryX=0.509;entryY=1.137;entryDx=0;entryDy=0;entryPerimeter=0;" edge="1" parent="1" target="WWTZZWRBZjoq4rbTMtrc-19">
          <mxGeometry width="50" height="50" relative="1" as="geometry">
            <mxPoint x="992" y="668" as="sourcePoint" />
            <mxPoint x="1452" y="618" as="targetPoint" />
          </mxGeometry>
        </mxCell>
        <mxCell id="WWTZZWRBZjoq4rbTMtrc-83" value="" style="endArrow=none;html=1;rounded=0;entryX=0;entryY=0.5;entryDx=0;entryDy=0;" edge="1" parent="1" target="WWTZZWRBZjoq4rbTMtrc-49">
          <mxGeometry width="50" height="50" relative="1" as="geometry">
            <mxPoint x="992" y="668" as="sourcePoint" />
            <mxPoint x="1452" y="618" as="targetPoint" />
          </mxGeometry>
        </mxCell>
        <mxCell id="WWTZZWRBZjoq4rbTMtrc-84" value="1..*" style="text;html=1;align=center;verticalAlign=middle;resizable=0;points=[];autosize=1;strokeColor=none;fillColor=none;" vertex="1" parent="1">
          <mxGeometry x="491" y="571" width="40" height="30" as="geometry" />
        </mxCell>
        <mxCell id="WWTZZWRBZjoq4rbTMtrc-85" value="1..*" style="text;html=1;align=center;verticalAlign=middle;resizable=0;points=[];autosize=1;strokeColor=none;fillColor=none;" vertex="1" parent="1">
          <mxGeometry x="984" y="533" width="36" height="26" as="geometry" />
        </mxCell>
        <mxCell id="WWTZZWRBZjoq4rbTMtrc-86" value="1" style="text;html=1;align=center;verticalAlign=middle;resizable=0;points=[];autosize=1;strokeColor=none;fillColor=none;" vertex="1" parent="1">
          <mxGeometry x="1304" y="956" width="30" height="30" as="geometry" />
        </mxCell>
        <mxCell id="WWTZZWRBZjoq4rbTMtrc-87" value="" style="endArrow=none;dashed=1;html=1;rounded=0;exitX=0.584;exitY=-0.028;exitDx=0;exitDy=0;exitPerimeter=0;" edge="1" parent="1" source="WWTZZWRBZjoq4rbTMtrc-88">
          <mxGeometry width="50" height="50" relative="1" as="geometry">
            <mxPoint x="952" y="738" as="sourcePoint" />
            <mxPoint x="992" y="668" as="targetPoint" />
          </mxGeometry>
        </mxCell>
        <mxCell id="WWTZZWRBZjoq4rbTMtrc-88" value="MyFavourite" style="swimlane;fontStyle=1;align=center;verticalAlign=top;childLayout=stackLayout;horizontal=1;startSize=26;horizontalStack=0;resizeParent=1;resizeParentMax=0;resizeLast=0;collapsible=1;marginBottom=0;whiteSpace=wrap;html=1;" vertex="1" parent="1">
          <mxGeometry x="842" y="696" width="160" height="216" as="geometry" />
        </mxCell>
        <mxCell id="WWTZZWRBZjoq4rbTMtrc-89" value="datum: Date" style="text;strokeColor=none;fillColor=none;align=left;verticalAlign=top;spacingLeft=4;spacingRight=4;overflow=hidden;rotatable=0;points=[[0,0.5],[1,0.5]];portConstraint=eastwest;whiteSpace=wrap;html=1;" vertex="1" parent="WWTZZWRBZjoq4rbTMtrc-88">
          <mxGeometry y="26" width="160" height="26" as="geometry" />
        </mxCell>
        <mxCell id="WWTZZWRBZjoq4rbTMtrc-90" value="&lt;div&gt;brProizvodi: Integer&lt;/div&gt;" style="text;strokeColor=none;fillColor=none;align=left;verticalAlign=top;spacingLeft=4;spacingRight=4;overflow=hidden;rotatable=0;points=[[0,0.5],[1,0.5]];portConstraint=eastwest;whiteSpace=wrap;html=1;" vertex="1" parent="WWTZZWRBZjoq4rbTMtrc-88">
          <mxGeometry y="52" width="160" height="26" as="geometry" />
        </mxCell>
        <mxCell id="WWTZZWRBZjoq4rbTMtrc-91" value="&lt;div&gt;market: Market&lt;/div&gt;" style="text;strokeColor=none;fillColor=none;align=left;verticalAlign=top;spacingLeft=4;spacingRight=4;overflow=hidden;rotatable=0;points=[[0,0.5],[1,0.5]];portConstraint=eastwest;whiteSpace=wrap;html=1;" vertex="1" parent="WWTZZWRBZjoq4rbTMtrc-88">
          <mxGeometry y="78" width="160" height="26" as="geometry" />
        </mxCell>
        <mxCell id="WWTZZWRBZjoq4rbTMtrc-92" value="kupuvach: Kupuvac" style="text;strokeColor=none;fillColor=none;align=left;verticalAlign=top;spacingLeft=4;spacingRight=4;overflow=hidden;rotatable=0;points=[[0,0.5],[1,0.5]];portConstraint=eastwest;whiteSpace=wrap;html=1;" vertex="1" parent="WWTZZWRBZjoq4rbTMtrc-88">
          <mxGeometry y="104" width="160" height="26" as="geometry" />
        </mxCell>
        <mxCell id="WWTZZWRBZjoq4rbTMtrc-93" value="proizvod: Proizvod" style="text;strokeColor=none;fillColor=none;align=left;verticalAlign=top;spacingLeft=4;spacingRight=4;overflow=hidden;rotatable=0;points=[[0,0.5],[1,0.5]];portConstraint=eastwest;whiteSpace=wrap;html=1;" vertex="1" parent="WWTZZWRBZjoq4rbTMtrc-88">
          <mxGeometry y="130" width="160" height="26" as="geometry" />
        </mxCell>
        <mxCell id="WWTZZWRBZjoq4rbTMtrc-94" value="" style="line;strokeWidth=1;fillColor=none;align=left;verticalAlign=middle;spacingTop=-1;spacingLeft=3;spacingRight=3;rotatable=0;labelPosition=right;points=[];portConstraint=eastwest;strokeColor=inherit;" vertex="1" parent="WWTZZWRBZjoq4rbTMtrc-88">
          <mxGeometry y="156" width="160" height="8" as="geometry" />
        </mxCell>
        <mxCell id="WWTZZWRBZjoq4rbTMtrc-95" value="+ proveriPopust()" style="text;strokeColor=none;fillColor=none;align=left;verticalAlign=top;spacingLeft=4;spacingRight=4;overflow=hidden;rotatable=0;points=[[0,0.5],[1,0.5]];portConstraint=eastwest;whiteSpace=wrap;html=1;" vertex="1" parent="WWTZZWRBZjoq4rbTMtrc-88">
          <mxGeometry y="164" width="160" height="26" as="geometry" />
        </mxCell>
        <mxCell id="WWTZZWRBZjoq4rbTMtrc-96" value="+ ispratiNotifikacija()" style="text;strokeColor=none;fillColor=none;align=left;verticalAlign=top;spacingLeft=4;spacingRight=4;overflow=hidden;rotatable=0;points=[[0,0.5],[1,0.5]];portConstraint=eastwest;whiteSpace=wrap;html=1;" vertex="1" parent="WWTZZWRBZjoq4rbTMtrc-88">
          <mxGeometry y="190" width="160" height="26" as="geometry" />
        </mxCell>
        <mxCell id="WWTZZWRBZjoq4rbTMtrc-97" value="" style="endArrow=none;html=1;rounded=0;exitX=0.859;exitY=1.126;exitDx=0;exitDy=0;exitPerimeter=0;" edge="1" parent="1" source="WWTZZWRBZjoq4rbTMtrc-19">
          <mxGeometry width="50" height="50" relative="1" as="geometry">
            <mxPoint x="1502" y="918" as="sourcePoint" />
            <mxPoint x="1182" y="1048" as="targetPoint" />
          </mxGeometry>
        </mxCell>
        <mxCell id="WWTZZWRBZjoq4rbTMtrc-98" value="" style="endArrow=none;html=1;rounded=0;entryX=0.566;entryY=0.903;entryDx=0;entryDy=0;entryPerimeter=0;" edge="1" parent="1" target="WWTZZWRBZjoq4rbTMtrc-54">
          <mxGeometry width="50" height="50" relative="1" as="geometry">
            <mxPoint x="1182" y="1048" as="sourcePoint" />
            <mxPoint x="1552" y="868" as="targetPoint" />
          </mxGeometry>
        </mxCell>
        <mxCell id="WWTZZWRBZjoq4rbTMtrc-99" value="" style="endArrow=none;html=1;rounded=0;entryX=-0.018;entryY=0.815;entryDx=0;entryDy=0;entryPerimeter=0;" edge="1" parent="1" target="WWTZZWRBZjoq4rbTMtrc-124">
          <mxGeometry width="50" height="50" relative="1" as="geometry">
            <mxPoint x="1182" y="1048" as="sourcePoint" />
            <mxPoint x="1862" y="965.5" as="targetPoint" />
          </mxGeometry>
        </mxCell>
        <mxCell id="WWTZZWRBZjoq4rbTMtrc-100" value="Narachka" style="swimlane;fontStyle=1;align=center;verticalAlign=top;childLayout=stackLayout;horizontal=1;startSize=26;horizontalStack=0;resizeParent=1;resizeParentMax=0;resizeLast=0;collapsible=1;marginBottom=0;whiteSpace=wrap;html=1;" vertex="1" parent="1">
          <mxGeometry x="1072" y="1096" width="160" height="280" as="geometry" />
        </mxCell>
        <mxCell id="WWTZZWRBZjoq4rbTMtrc-101" value="status: String" style="text;strokeColor=none;fillColor=none;align=left;verticalAlign=top;spacingLeft=4;spacingRight=4;overflow=hidden;rotatable=0;points=[[0,0.5],[1,0.5]];portConstraint=eastwest;whiteSpace=wrap;html=1;" vertex="1" parent="WWTZZWRBZjoq4rbTMtrc-100">
          <mxGeometry y="26" width="160" height="26" as="geometry" />
        </mxCell>
        <mxCell id="WWTZZWRBZjoq4rbTMtrc-102" value="vreme: TimeStamp" style="text;strokeColor=none;fillColor=none;align=left;verticalAlign=top;spacingLeft=4;spacingRight=4;overflow=hidden;rotatable=0;points=[[0,0.5],[1,0.5]];portConstraint=eastwest;whiteSpace=wrap;html=1;" vertex="1" parent="WWTZZWRBZjoq4rbTMtrc-100">
          <mxGeometry y="52" width="160" height="26" as="geometry" />
        </mxCell>
        <mxCell id="WWTZZWRBZjoq4rbTMtrc-103" value="&lt;div&gt;cena: Float&lt;/div&gt;" style="text;strokeColor=none;fillColor=none;align=left;verticalAlign=top;spacingLeft=4;spacingRight=4;overflow=hidden;rotatable=0;points=[[0,0.5],[1,0.5]];portConstraint=eastwest;whiteSpace=wrap;html=1;" vertex="1" parent="WWTZZWRBZjoq4rbTMtrc-100">
          <mxGeometry y="78" width="160" height="26" as="geometry" />
        </mxCell>
        <mxCell id="WWTZZWRBZjoq4rbTMtrc-104" value="&lt;div&gt;kupuvach: Kupuvac&lt;/div&gt;" style="text;strokeColor=none;fillColor=none;align=left;verticalAlign=top;spacingLeft=4;spacingRight=4;overflow=hidden;rotatable=0;points=[[0,0.5],[1,0.5]];portConstraint=eastwest;whiteSpace=wrap;html=1;" vertex="1" parent="WWTZZWRBZjoq4rbTMtrc-100">
          <mxGeometry y="104" width="160" height="26" as="geometry" />
        </mxCell>
        <mxCell id="WWTZZWRBZjoq4rbTMtrc-105" value="&lt;div&gt;dostavuvach: Dostavuvac&lt;/div&gt;" style="text;strokeColor=none;fillColor=none;align=left;verticalAlign=top;spacingLeft=4;spacingRight=4;overflow=hidden;rotatable=0;points=[[0,0.5],[1,0.5]];portConstraint=eastwest;whiteSpace=wrap;html=1;" vertex="1" parent="WWTZZWRBZjoq4rbTMtrc-100">
          <mxGeometry y="130" width="160" height="26" as="geometry" />
        </mxCell>
        <mxCell id="WWTZZWRBZjoq4rbTMtrc-106" value="&lt;div&gt;proizvod: Proizvod&lt;/div&gt;" style="text;strokeColor=none;fillColor=none;align=left;verticalAlign=top;spacingLeft=4;spacingRight=4;overflow=hidden;rotatable=0;points=[[0,0.5],[1,0.5]];portConstraint=eastwest;whiteSpace=wrap;html=1;" vertex="1" parent="WWTZZWRBZjoq4rbTMtrc-100">
          <mxGeometry y="156" width="160" height="26" as="geometry" />
        </mxCell>
        <mxCell id="WWTZZWRBZjoq4rbTMtrc-107" value="" style="line;strokeWidth=1;fillColor=none;align=left;verticalAlign=middle;spacingTop=-1;spacingLeft=3;spacingRight=3;rotatable=0;labelPosition=right;points=[];portConstraint=eastwest;strokeColor=inherit;" vertex="1" parent="WWTZZWRBZjoq4rbTMtrc-100">
          <mxGeometry y="182" width="160" height="8" as="geometry" />
        </mxCell>
        <mxCell id="WWTZZWRBZjoq4rbTMtrc-108" value="+ promeniStatus(novStatus: String)" style="text;strokeColor=none;fillColor=none;align=left;verticalAlign=top;spacingLeft=4;spacingRight=4;overflow=hidden;rotatable=0;points=[[0,0.5],[1,0.5]];portConstraint=eastwest;whiteSpace=wrap;html=1;" vertex="1" parent="WWTZZWRBZjoq4rbTMtrc-100">
          <mxGeometry y="190" width="160" height="38" as="geometry" />
        </mxCell>
        <mxCell id="WWTZZWRBZjoq4rbTMtrc-109" value="+ presmetajCena(): float" style="text;strokeColor=none;fillColor=none;align=left;verticalAlign=top;spacingLeft=4;spacingRight=4;overflow=hidden;rotatable=0;points=[[0,0.5],[1,0.5]];portConstraint=eastwest;whiteSpace=wrap;html=1;" vertex="1" parent="WWTZZWRBZjoq4rbTMtrc-100">
          <mxGeometry y="228" width="160" height="26" as="geometry" />
        </mxCell>
        <mxCell id="WWTZZWRBZjoq4rbTMtrc-110" value="+ proveriVremeDostava()" style="text;strokeColor=none;fillColor=none;align=left;verticalAlign=top;spacingLeft=4;spacingRight=4;overflow=hidden;rotatable=0;points=[[0,0.5],[1,0.5]];portConstraint=eastwest;whiteSpace=wrap;html=1;" vertex="1" parent="WWTZZWRBZjoq4rbTMtrc-100">
          <mxGeometry y="254" width="160" height="26" as="geometry" />
        </mxCell>
        <mxCell id="WWTZZWRBZjoq4rbTMtrc-111" value="" style="endArrow=none;dashed=1;html=1;rounded=0;exitX=0.5;exitY=0;exitDx=0;exitDy=0;" edge="1" parent="1" source="WWTZZWRBZjoq4rbTMtrc-100">
          <mxGeometry width="50" height="50" relative="1" as="geometry">
            <mxPoint x="1032" y="1146" as="sourcePoint" />
            <mxPoint x="1182" y="1048" as="targetPoint" />
          </mxGeometry>
        </mxCell>
        <mxCell id="WWTZZWRBZjoq4rbTMtrc-112" value="Admin" style="swimlane;fontStyle=1;align=center;verticalAlign=top;childLayout=stackLayout;horizontal=1;startSize=26;horizontalStack=0;resizeParent=1;resizeParentMax=0;resizeLast=0;collapsible=1;marginBottom=0;whiteSpace=wrap;html=1;" vertex="1" parent="1">
          <mxGeometry x="1444" y="773" width="186" height="163" as="geometry" />
        </mxCell>
        <mxCell id="WWTZZWRBZjoq4rbTMtrc-113" value="&amp;nbsp; &amp;nbsp; &amp;nbsp; &amp;nbsp; &amp;nbsp; &amp;nbsp; &amp;nbsp; &amp;nbsp; &amp;nbsp; &amp;nbsp; &amp;nbsp; &amp;nbsp; &amp;nbsp; &amp;nbsp; &amp;nbsp; &amp;nbsp; &amp;nbsp;&amp;nbsp;" style="text;strokeColor=none;fillColor=none;align=left;verticalAlign=top;spacingLeft=4;spacingRight=4;overflow=hidden;rotatable=0;points=[[0,0.5],[1,0.5]];portConstraint=eastwest;whiteSpace=wrap;html=1;" vertex="1" parent="WWTZZWRBZjoq4rbTMtrc-112">
          <mxGeometry y="26" width="186" height="26" as="geometry" />
        </mxCell>
        <mxCell id="WWTZZWRBZjoq4rbTMtrc-114" value="" style="line;strokeWidth=1;fillColor=none;align=left;verticalAlign=middle;spacingTop=-1;spacingLeft=3;spacingRight=3;rotatable=0;labelPosition=right;points=[];portConstraint=eastwest;strokeColor=inherit;" vertex="1" parent="WWTZZWRBZjoq4rbTMtrc-112">
          <mxGeometry y="52" width="186" height="8" as="geometry" />
        </mxCell>
        <mxCell id="WWTZZWRBZjoq4rbTMtrc-115" value="+ azurirajProizvod(p: Proizvod, novaCena: float)" style="text;strokeColor=none;fillColor=none;align=left;verticalAlign=top;spacingLeft=4;spacingRight=4;overflow=hidden;rotatable=0;points=[[0,0.5],[1,0.5]];portConstraint=eastwest;whiteSpace=wrap;html=1;" vertex="1" parent="WWTZZWRBZjoq4rbTMtrc-112">
          <mxGeometry y="60" width="186" height="40" as="geometry" />
        </mxCell>
        <mxCell id="WWTZZWRBZjoq4rbTMtrc-116" value="+&amp;nbsp;staviPopust(p: Proizvod, novaCena: float, datumDo: Date)" style="text;strokeColor=none;fillColor=none;align=left;verticalAlign=top;spacingLeft=4;spacingRight=4;overflow=hidden;rotatable=0;points=[[0,0.5],[1,0.5]];portConstraint=eastwest;whiteSpace=wrap;html=1;" vertex="1" parent="WWTZZWRBZjoq4rbTMtrc-112">
          <mxGeometry y="100" width="186" height="40" as="geometry" />
        </mxCell>
        <mxCell id="WWTZZWRBZjoq4rbTMtrc-117" value="+ otstraniProizvod(p: Proizvod)" style="text;strokeColor=none;fillColor=none;align=left;verticalAlign=top;spacingLeft=4;spacingRight=4;overflow=hidden;rotatable=0;points=[[0,0.5],[1,0.5]];portConstraint=eastwest;whiteSpace=wrap;html=1;" vertex="1" parent="WWTZZWRBZjoq4rbTMtrc-112">
          <mxGeometry y="140" width="186" height="23" as="geometry" />
        </mxCell>
        <mxCell id="WWTZZWRBZjoq4rbTMtrc-118" value="Inspektor" style="swimlane;fontStyle=1;align=center;verticalAlign=top;childLayout=stackLayout;horizontal=1;startSize=26;horizontalStack=0;resizeParent=1;resizeParentMax=0;resizeLast=0;collapsible=1;marginBottom=0;whiteSpace=wrap;html=1;" vertex="1" parent="1">
          <mxGeometry x="1697" y="973" width="208" height="120" as="geometry" />
        </mxCell>
        <mxCell id="WWTZZWRBZjoq4rbTMtrc-119" value="&amp;nbsp; &amp;nbsp; &amp;nbsp; &amp;nbsp; &amp;nbsp; &amp;nbsp; &amp;nbsp; &amp;nbsp; &amp;nbsp; &amp;nbsp; &amp;nbsp; &amp;nbsp; &amp;nbsp;" style="text;strokeColor=none;fillColor=none;align=left;verticalAlign=top;spacingLeft=4;spacingRight=4;overflow=hidden;rotatable=0;points=[[0,0.5],[1,0.5]];portConstraint=eastwest;whiteSpace=wrap;html=1;" vertex="1" parent="WWTZZWRBZjoq4rbTMtrc-118">
          <mxGeometry y="26" width="208" height="26" as="geometry" />
        </mxCell>
        <mxCell id="WWTZZWRBZjoq4rbTMtrc-120" value="" style="line;strokeWidth=1;fillColor=none;align=left;verticalAlign=middle;spacingTop=-1;spacingLeft=3;spacingRight=3;rotatable=0;labelPosition=right;points=[];portConstraint=eastwest;strokeColor=inherit;" vertex="1" parent="WWTZZWRBZjoq4rbTMtrc-118">
          <mxGeometry y="52" width="208" height="8" as="geometry" />
        </mxCell>
        <mxCell id="WWTZZWRBZjoq4rbTMtrc-121" value="+ proveriPopusti(m: Market)" style="text;strokeColor=none;fillColor=none;align=left;verticalAlign=top;spacingLeft=4;spacingRight=4;overflow=hidden;rotatable=0;points=[[0,0.5],[1,0.5]];portConstraint=eastwest;whiteSpace=wrap;html=1;" vertex="1" parent="WWTZZWRBZjoq4rbTMtrc-118">
          <mxGeometry y="60" width="208" height="24" as="geometry" />
        </mxCell>
        <mxCell id="WWTZZWRBZjoq4rbTMtrc-122" value="&lt;font&gt;+ ispratiKazna(m: Market, visina: float, serBroj: String)&lt;/font&gt;" style="text;strokeColor=none;fillColor=none;align=left;verticalAlign=top;spacingLeft=4;spacingRight=4;overflow=hidden;rotatable=0;points=[[0,0.5],[1,0.5]];portConstraint=eastwest;whiteSpace=wrap;html=1;" vertex="1" parent="WWTZZWRBZjoq4rbTMtrc-118">
          <mxGeometry y="84" width="208" height="36" as="geometry" />
        </mxCell>
        <mxCell id="WWTZZWRBZjoq4rbTMtrc-123" value="Dostavuvac&lt;span style=&quot;white-space: pre;&quot;&gt;&#x9;&lt;/span&gt;" style="swimlane;fontStyle=1;align=center;verticalAlign=top;childLayout=stackLayout;horizontal=1;startSize=26;horizontalStack=0;resizeParent=1;resizeParentMax=0;resizeLast=0;collapsible=1;marginBottom=0;whiteSpace=wrap;html=1;" vertex="1" parent="1">
          <mxGeometry x="2019" y="1150.5" width="160" height="171" as="geometry" />
        </mxCell>
        <mxCell id="WWTZZWRBZjoq4rbTMtrc-124" value="brNarachki: Integer" style="text;strokeColor=none;fillColor=none;align=left;verticalAlign=top;spacingLeft=4;spacingRight=4;overflow=hidden;rotatable=0;points=[[0,0.5],[1,0.5]];portConstraint=eastwest;whiteSpace=wrap;html=1;" vertex="1" parent="WWTZZWRBZjoq4rbTMtrc-123">
          <mxGeometry y="26" width="160" height="26" as="geometry" />
        </mxCell>
        <mxCell id="WWTZZWRBZjoq4rbTMtrc-125" value="" style="line;strokeWidth=1;fillColor=none;align=left;verticalAlign=middle;spacingTop=-1;spacingLeft=3;spacingRight=3;rotatable=0;labelPosition=right;points=[];portConstraint=eastwest;strokeColor=inherit;" vertex="1" parent="WWTZZWRBZjoq4rbTMtrc-123">
          <mxGeometry y="52" width="160" height="8" as="geometry" />
        </mxCell>
        <mxCell id="WWTZZWRBZjoq4rbTMtrc-126" value="+ prezemiNarachka(n: Narachka)" style="text;strokeColor=none;fillColor=none;align=left;verticalAlign=top;spacingLeft=4;spacingRight=4;overflow=hidden;rotatable=0;points=[[0,0.5],[1,0.5]];portConstraint=eastwest;whiteSpace=wrap;html=1;" vertex="1" parent="WWTZZWRBZjoq4rbTMtrc-123">
          <mxGeometry y="60" width="160" height="36" as="geometry" />
        </mxCell>
        <mxCell id="WWTZZWRBZjoq4rbTMtrc-127" value="+ zatvoriNarachka(n: Narachka):" style="text;strokeColor=none;fillColor=none;align=left;verticalAlign=top;spacingLeft=4;spacingRight=4;overflow=hidden;rotatable=0;points=[[0,0.5],[1,0.5]];portConstraint=eastwest;whiteSpace=wrap;html=1;" vertex="1" parent="WWTZZWRBZjoq4rbTMtrc-123">
          <mxGeometry y="96" width="160" height="35" as="geometry" />
        </mxCell>
        <mxCell id="WWTZZWRBZjoq4rbTMtrc-128" value="+ prikaziAktivniNarachki(): Narachka [*]" style="text;strokeColor=none;fillColor=none;align=left;verticalAlign=top;spacingLeft=4;spacingRight=4;overflow=hidden;rotatable=0;points=[[0,0.5],[1,0.5]];portConstraint=eastwest;whiteSpace=wrap;html=1;" vertex="1" parent="WWTZZWRBZjoq4rbTMtrc-123">
          <mxGeometry y="131" width="160" height="40" as="geometry" />
        </mxCell>
        <mxCell id="WWTZZWRBZjoq4rbTMtrc-129" value="1..*" style="text;html=1;align=center;verticalAlign=middle;resizable=0;points=[];autosize=1;strokeColor=none;fillColor=none;" vertex="1" parent="1">
          <mxGeometry x="1058" y="531" width="36" height="26" as="geometry" />
        </mxCell>
        <mxCell id="WWTZZWRBZjoq4rbTMtrc-130" value="1" style="text;html=1;align=center;verticalAlign=middle;resizable=0;points=[];autosize=1;strokeColor=none;fillColor=none;" vertex="1" parent="1">
          <mxGeometry x="1178" y="740" width="25" height="26" as="geometry" />
        </mxCell>
        <mxCell id="WWTZZWRBZjoq4rbTMtrc-131" value="1" style="text;html=1;align=center;verticalAlign=middle;resizable=0;points=[];autosize=1;strokeColor=none;fillColor=none;" vertex="1" parent="1">
          <mxGeometry x="1982" y="1165" width="25" height="26" as="geometry" />
        </mxCell>
      </root>
    </mxGraphModel>
  </diagram>
</mxfile>
